<svg width="27" height="27" viewBox="0 0 27 27" fill="none" xmlns="http://www.w3.org/2000/svg">
<path fill-rule="evenodd" clip-rule="evenodd" d="M20.145 17.895C21.825 18.45 23.625 18.75 25.5 18.75C26.325 18.75 27 19.425 27 20.25V25.5C27 26.325 26.325 27 25.5 27C11.415 27 0 15.585 0 1.5C0 0.675 0.675 0 1.5 0H6.75C7.575 0 8.25 0.675 8.25 1.5C8.25 3.375 8.55 5.175 9.105 6.855C9.27 7.38 9.15 7.965 8.73 8.37L5.43 11.685C7.59 15.93 11.07 19.395 15.315 21.555L18.615 18.255C19.035 17.85 19.62 17.73 20.145 17.895ZM13.5 15V0H27V10.5H18L13.5 15Z" fill="#E12729"/>
</svg>
