<svg width="23" height="35" viewBox="0 0 23 35" fill="none" xmlns="http://www.w3.org/2000/svg">
<path fill-rule="evenodd" clip-rule="evenodd" d="M0 4.9C2.94341 1.87174 7.01093 0 11.5074 0C16.0039 0 20.0714 1.87174 23 4.91522L20.9145 7.06087C18.5183 4.58043 15.1904 3.04348 11.5074 3.04348C7.82444 3.04348 4.49646 4.58043 2.08553 7.04565L0 4.9ZM4.18585 9.20652L6.27138 11.3522C7.61736 9.98261 9.46624 9.13043 11.5074 9.13043C13.5486 9.13043 15.3974 9.98261 16.7434 11.3522L18.8289 9.20652C16.9505 7.27391 14.3621 6.08696 11.5074 6.08696C8.65273 6.08696 6.06431 7.27391 4.18585 9.20652ZM5.591 15.2174C5.591 14.3804 6.25659 13.6957 7.0701 13.6957H15.9447C16.7582 13.6957 17.4238 14.3804 17.4238 15.2174V33.4783C17.4238 34.3152 16.7582 35 15.9447 35H7.0701C6.25659 35 5.591 34.3152 5.591 33.4783V15.2174ZM8.5492 19.7826C8.5492 21.4565 9.88039 22.8261 11.5074 22.8261C13.1344 22.8261 14.4656 21.4565 14.4656 19.7826C14.4656 18.1087 13.1344 16.7391 11.5074 16.7391C9.88039 16.7391 8.5492 18.1087 8.5492 19.7826Z" fill="#E12729"/>
</svg>
