<svg width="24" height="30" viewBox="0 0 24 30" fill="none" xmlns="http://www.w3.org/2000/svg">
<path fill-rule="evenodd" clip-rule="evenodd" d="M24 9V26.385L18.255 20.625C19.035 19.44 19.5 18.03 19.5 16.5C19.5 12.36 16.14 9 12 9C7.86 9 4.5 12.36 4.5 16.5C4.5 20.64 7.86 24 12 24C13.53 24 14.94 23.535 16.14 22.755L22.785 29.4C22.275 29.775 21.675 30 21 30H2.985C1.335 30 0 28.65 0 27L0.015 3C0.015 1.35 1.35 0 3 0H15L24 9ZM12 21C9.51 21 7.5 18.99 7.5 16.5C7.5 14.01 9.51 12 12 12C14.49 12 16.5 14.01 16.5 16.5C16.5 18.99 14.49 21 12 21Z" fill="#E12729"/>
</svg>
