<svg width="33" height="33" viewBox="0 0 33 33" fill="none" xmlns="http://www.w3.org/2000/svg">
<path fill-rule="evenodd" clip-rule="evenodd" d="M15 4.5H30C31.65 4.5 33 5.85 33 7.5V30C33 31.65 31.65 33 30 33H16.5L15 28.5H3C1.35 28.5 0 27.15 0 25.5V3C0 1.35 1.35 0 3 0H13.5L15 4.5ZM1.5 15C1.5 19.14 4.86 22.5 9 22.5C13.335 22.5 16.2 19.455 16.2 15.165C16.2 14.55 16.125 14.1 16.02 13.635H9V16.2H13.38C13.26 17.655 12.015 19.815 9 19.815C6.39 19.815 4.275 17.655 4.275 15C4.275 12.345 6.39 10.185 9 10.185C10.485 10.185 11.475 10.815 12.045 11.355L14.025 9.45C12.72 8.25 11.025 7.5 9 7.5C4.86 7.5 1.5 10.86 1.5 15ZM18.255 14.37H23.805C23.16 16.245 22.14 18.015 20.73 19.575C20.265 19.05 19.83 18.495 19.44 17.925L18.255 14.37ZM29.25 30.75C30.075 30.75 30.75 30.075 30.75 29.25V8.25C30.75 7.425 30.075 6.75 29.25 6.75H15.69L17.61 12.435H19.77V10.5H21.705V12.435H28.5V14.385H25.65C24.945 16.68 23.745 18.84 22.05 20.715L22.02 20.745L26.97 25.62L25.59 27L20.94 22.35L22.5 27L19.5 30.75H29.25Z" fill="#E12729"/>
</svg>
